<svg xmlns="http://www.w3.org/2000/svg" viewBox="0 0 200 280">
<defs><filter id="g"><feGaussianBlur stdDeviation="2.5"/><feMerge><feMergeNode in="blur"/><feMergeNode in="SourceGraphic"/></feMerge></filter></defs>
<rect width="200" height="280" fill="#120808" rx="10"/>
<rect x="2" y="2" width="196" height="276" fill="none" stroke="#cc3333" stroke-width="1.5" rx="8" opacity="0.25"/>
<rect x="6" y="6" width="188" height="268" fill="none" stroke="#ff5544" stroke-width="0.5" rx="6" opacity="0.12"/>
<rect x="10" y="12" width="180" height="20" fill="#93c5fd" opacity="0.12" rx="4"/>
<text x="100.0" y="27" text-anchor="middle" fill="#93c5fd" font-size="9" font-family="monospace" opacity="0.7">SKILL</text>
<circle cx="100.0" cy="80" r="18.0" fill="none" stroke="#ff5544" stroke-width="3.0" opacity="0.7" filter="url(#g)"/>
<rect x="92.0" y="58.0" width="16.0" height="6.0" fill="#ff5544" rx="2.0" opacity="0.5"/>
<line x1="88.0" y1="70.0" x2="112.0" y2="70.0" stroke="#ff5544" stroke-width="1.5" opacity="0.4"/>
<line x1="90.0" y1="78.0" x2="110.0" y2="78.0" stroke="#ff5544" stroke-width="1.5" opacity="0.4"/>
<line x1="92.0" y1="86.0" x2="108.0" y2="86.0" stroke="#ff5544" stroke-width="1.5" opacity="0.4"/>
<rect x="33.7" y="109.6" width="12.6" height="16.799999999999997" fill="none" stroke="#a5f3fc" stroke-width="0.7" rx="1.0499999999999998" opacity="0.6"/>
<rect x="35.8" y="113.1" width="8.399999999999999" height="0.7" fill="#a5f3fc" opacity="0.35" rx="1"/>
<rect x="35.8" y="115.9" width="6.3" height="0.7" fill="#a5f3fc" opacity="0.25" rx="1"/>
<rect x="35.8" y="118.7" width="7.0" height="0.7" fill="#a5f3fc" opacity="0.25" rx="1"/>
<circle cx="69" cy="235" r="4.9" fill="#ff5544" opacity="0.18"/>
<circle cx="161" cy="160" r="4.8" fill="#ff5544" opacity="0.31"/>
<circle cx="185" cy="143" r="3.2" fill="#ff5544" opacity="0.17"/>
<circle cx="39" cy="196" r="2.5" fill="#ff5544" opacity="0.31"/>
<circle cx="154" cy="196" r="4.3" fill="#ff5544" opacity="0.24"/>
<circle cx="122" cy="197" r="4.7" fill="#ff5544" opacity="0.25"/>
<circle cx="118" cy="246" r="5.0" fill="#ff5544" opacity="0.28"/>
<rect x="14" y="250" width="24" height="18" fill="none" stroke="#ff5544" stroke-width="1.5" rx="4" opacity="0.6"/>
<text x="26" y="264" text-anchor="middle" fill="#ff5544" font-size="13" font-weight="bold" opacity="0.8">2</text>
<rect x="24" y="272" width="152" height="2" fill="#ff5544" opacity="0.25" rx="1"/>
</svg>