<svg xmlns="http://www.w3.org/2000/svg" viewBox="0 0 200 280">
<defs><filter id="g"><feGaussianBlur stdDeviation="2.5"/><feMerge><feMergeNode in="blur"/><feMergeNode in="SourceGraphic"/></feMerge></filter></defs>
<rect width="200" height="280" fill="#080812" rx="10"/>
<rect x="2" y="2" width="196" height="276" fill="none" stroke="#8855cc" stroke-width="1.5" rx="8" opacity="0.25"/>
<rect x="6" y="6" width="188" height="268" fill="none" stroke="#bb77ee" stroke-width="0.5" rx="6" opacity="0.12"/>
<rect x="10" y="12" width="180" height="20" fill="#93c5fd" opacity="0.12" rx="4"/>
<text x="100.0" y="27" text-anchor="middle" fill="#93c5fd" font-size="9" font-family="monospace" opacity="0.7">SKILL</text>
<rect x="98.0" y="45.0" width="4.0" height="55.0" fill="#bb77ee" rx="1.0" opacity="0.7" filter="url(#g)"/>
<rect x="86.0" y="41.0" width="28.0" height="8.0" fill="#bb77ee" rx="2.0" opacity="0.6"/>
<rect x="84.0" y="98.0" width="32.0" height="4.0" fill="#8855cc" rx="1.0" opacity="0.4"/>
<circle cx="73" cy="225" r="1.8" fill="#bb77ee" opacity="0.27"/>
<circle cx="140" cy="147" r="2.1" fill="#bb77ee" opacity="0.24"/>
<circle cx="177" cy="237" r="3.7" fill="#bb77ee" opacity="0.14"/>
<circle cx="159" cy="142" r="1.5" fill="#bb77ee" opacity="0.31"/>
<circle cx="82" cy="217" r="2.0" fill="#bb77ee" opacity="0.33"/>
<circle cx="176" cy="158" r="2.1" fill="#bb77ee" opacity="0.11"/>
<circle cx="96" cy="226" r="4.6" fill="#bb77ee" opacity="0.27"/>
<rect x="14" y="250" width="24" height="18" fill="none" stroke="#bb77ee" stroke-width="1.5" rx="4" opacity="0.6"/>
<text x="26" y="264" text-anchor="middle" fill="#bb77ee" font-size="13" font-weight="bold" opacity="0.8">2</text>
<rect x="24" y="272" width="152" height="2" fill="#bb77ee" opacity="0.25" rx="1"/>
</svg>