<svg xmlns="http://www.w3.org/2000/svg" viewBox="0 0 120 160">
<ellipse cx="60" cy="90" rx="24" ry="36" fill="#1a0a0a" stroke="#8a3030" stroke-width="2.5"/><ellipse cx="60" cy="42" rx="17" ry="16" fill="#1a0a0a" stroke="#8a3030" stroke-width="2"/><circle cx="52" cy="38" r="3" fill="#ff6644"/><circle cx="68" cy="38" r="3" fill="#ff6644"/><ellipse cx="60" cy="52" rx="10" ry="5" fill="#1a0a0a" stroke="#8a3030" stroke-width="1"/><circle cx="56" cy="51" r="1.5" fill="#ff6644"/><circle cx="64" cy="51" r="1.5" fill="#ff6644"/><path d="M40 65 Q20 40 30 20 Q35 25 38 65" fill="#2a1010" stroke="#8a3030" stroke-width="1.5" opacity="0.6"/><path d="M80 65 Q100 40 90 20 Q85 25 82 65" fill="#2a1010" stroke="#8a3030" stroke-width="1.5" opacity="0.6"/><path d="M75 80 Q90 85 92 95" fill="none" stroke="#cc6644" stroke-width="3"/><path d="M92 95 L98 92 M92 95 L96 100 M92 95 L88 100" stroke="#cc6644" stroke-width="1.5"/><rect x="48" y="118" width="14" height="25" fill="#1a0a0a" stroke="#8a3030" stroke-width="1.5" rx="3"/><rect x="60" y="118" width="14" height="25" fill="#1a0a0a" stroke="#8a3030" stroke-width="1.5" rx="3"/>
</svg>